<?xml version="1.0" encoding="UTF-8"?>
<!DOCTYPE svg
PUBLIC "-//W3C//DTD SVG 1.1//EN"
       "http://www.w3.org/Graphics/SVG/1.1/DTD/svg11.dtd">
<svg viewBox="27 3 1041 753" width="1014px" height="750px" xmlns="http://www.w3.org/2000/svg" version="1.1">
   <line x1="451" y1="532" x2="441" y2="532" style="stroke:#bbb;stroke-width:1;"/>
   <line x1="137" y1="48" x2="127" y2="48" style="stroke:#bbb;stroke-width:1;"/>
   <line x1="441" y1="532" x2="137" y2="48" style="stroke:#bbb;stroke-width:1;"/>
   <line x1="443.5" y1="532" x2="447.03553390593" y2="535.53553390593" style="stroke:#bbb;stroke-width:2;"/>
   <line x1="443.5" y1="532" x2="447.03553390593" y2="528.46446609407" style="stroke:#bbb;stroke-width:2;"/>
   <line x1="132" y1="48" x2="135.53553390593" y2="51.535533905933" style="stroke:#bbb;stroke-width:2;"/>
   <line x1="132" y1="48" x2="135.53553390593" y2="44.464466094067" style="stroke:#bbb;stroke-width:2;"/>
   <line x1="451" y1="552" x2="441" y2="552" style="stroke:#0bf;stroke-width:1;"/>
   <line x1="331" y1="500" x2="321" y2="500" style="stroke:#0bf;stroke-width:1;"/>
   <line x1="441" y1="552" x2="331" y2="500" style="stroke:#0bf;stroke-width:1;"/>
   <line x1="443.5" y1="552" x2="447.03553390593" y2="555.53553390593" style="stroke:#0bf;stroke-width:2;"/>
   <line x1="443.5" y1="552" x2="447.03553390593" y2="548.46446609407" style="stroke:#0bf;stroke-width:2;"/>
   <line x1="326" y1="500" x2="329.53553390593" y2="503.53553390593" style="stroke:#0bf;stroke-width:2;"/>
   <line x1="326" y1="500" x2="329.53553390593" y2="496.46446609407" style="stroke:#0bf;stroke-width:2;"/>
   <line x1="245" y1="395" x2="235" y2="395" style="stroke:#0bf;stroke-width:1;"/>
   <line x1="227" y1="500" x2="237" y2="500" style="stroke:#0bf;stroke-width:1;"/>
   <line x1="235" y1="395" x2="227" y2="500" style="stroke:#0bf;stroke-width:1;"/>
   <line x1="237.5" y1="395" x2="241.03553390593" y2="398.53553390593" style="stroke:#0bf;stroke-width:2;"/>
   <line x1="237.5" y1="395" x2="241.03553390593" y2="391.46446609407" style="stroke:#0bf;stroke-width:2;"/>
   <line x1="232" y1="500" x2="228.46446609407" y2="503.53553390593" style="stroke:#0bf;stroke-width:2;"/>
   <line x1="232" y1="500" x2="228.46446609407" y2="496.46446609407" style="stroke:#0bf;stroke-width:2;"/>
   <line x1="329" y1="415" x2="339" y2="415" style="stroke:#0bf;stroke-width:1;"/>
   <line x1="632" y1="334" x2="642" y2="334" style="stroke:#0bf;stroke-width:1;"/>
   <line x1="339" y1="415" x2="632" y2="334" style="stroke:#0bf;stroke-width:1;"/>
   <line x1="336.5" y1="415" x2="332.96446609407" y2="418.53553390593" style="stroke:#0bf;stroke-width:2;"/>
   <line x1="336.5" y1="415" x2="332.96446609407" y2="411.46446609407" style="stroke:#0bf;stroke-width:2;"/>
   <line x1="637" y1="334" x2="633.46446609407" y2="337.53553390593" style="stroke:#0bf;stroke-width:2;"/>
   <line x1="637" y1="334" x2="633.46446609407" y2="330.46446609407" style="stroke:#0bf;stroke-width:2;"/>
   <line x1="464" y1="668" x2="454" y2="668" style="stroke:#c00;stroke-width:1;"/>
   <line x1="137" y1="48" x2="127" y2="48" style="stroke:#c00;stroke-width:1;"/>
   <line x1="454" y1="668" x2="137" y2="48" style="stroke:#c00;stroke-width:1;"/>
   <line x1="456.5" y1="668" x2="460.03553390593" y2="671.53553390593" style="stroke:#c00;stroke-width:2;"/>
   <line x1="456.5" y1="668" x2="460.03553390593" y2="664.46446609407" style="stroke:#c00;stroke-width:2;"/>
   <line x1="132" y1="48" x2="135.53553390593" y2="51.535533905933" style="stroke:#c00;stroke-width:2;"/>
   <line x1="132" y1="48" x2="135.53553390593" y2="44.464466094067" style="stroke:#c00;stroke-width:2;"/>
   <line x1="464" y1="688" x2="454" y2="688" style="stroke:#333;stroke-width:1;"/>
   <line x1="331" y1="500" x2="321" y2="500" style="stroke:#333;stroke-width:1;"/>
   <line x1="454" y1="688" x2="331" y2="500" style="stroke:#333;stroke-width:1;"/>
   <line x1="456.5" y1="688" x2="460.03553390593" y2="691.53553390593" style="stroke:#333;stroke-width:2;"/>
   <line x1="456.5" y1="688" x2="460.03553390593" y2="684.46446609407" style="stroke:#333;stroke-width:2;"/>
   <line x1="326" y1="500" x2="329.53553390593" y2="503.53553390593" style="stroke:#333;stroke-width:2;"/>
   <line x1="326" y1="500" x2="329.53553390593" y2="496.46446609407" style="stroke:#333;stroke-width:2;"/>
   <line x1="577" y1="145" x2="567" y2="145" style="stroke:#cb0;stroke-width:1;"/>
   <line x1="137" y1="48" x2="127" y2="48" style="stroke:#cb0;stroke-width:1;"/>
   <line x1="567" y1="145" x2="137" y2="48" style="stroke:#cb0;stroke-width:1;"/>
   <line x1="569.5" y1="145" x2="573.03553390593" y2="148.53553390593" style="stroke:#cb0;stroke-width:2;"/>
   <line x1="569.5" y1="145" x2="573.03553390593" y2="141.46446609407" style="stroke:#cb0;stroke-width:2;"/>
   <line x1="132" y1="48" x2="135.53553390593" y2="51.535533905933" style="stroke:#cb0;stroke-width:2;"/>
   <line x1="132" y1="48" x2="135.53553390593" y2="44.464466094067" style="stroke:#cb0;stroke-width:2;"/>
   <line x1="577" y1="165" x2="567" y2="165" style="stroke:#cb0;stroke-width:1;"/>
   <line x1="158" y1="371" x2="148" y2="371" style="stroke:#cb0;stroke-width:1;"/>
   <line x1="567" y1="165" x2="158" y2="371" style="stroke:#cb0;stroke-width:1;"/>
   <line x1="569.5" y1="165" x2="573.03553390593" y2="168.53553390593" style="stroke:#cb0;stroke-width:2;"/>
   <line x1="569.5" y1="165" x2="573.03553390593" y2="161.46446609407" style="stroke:#cb0;stroke-width:2;"/>
   <line x1="153" y1="371" x2="156.53553390593" y2="374.53553390593" style="stroke:#cb0;stroke-width:2;"/>
   <line x1="153" y1="371" x2="156.53553390593" y2="367.46446609407" style="stroke:#cb0;stroke-width:2;"/>
   <line x1="946" y1="171" x2="936" y2="171" style="stroke:#0b0;stroke-width:1;"/>
   <line x1="158" y1="371" x2="148" y2="371" style="stroke:#0b0;stroke-width:1;"/>
   <line x1="936" y1="171" x2="158" y2="371" style="stroke:#0b0;stroke-width:1;"/>
   <line x1="938.5" y1="171" x2="942.03553390593" y2="174.53553390593" style="stroke:#0b0;stroke-width:2;"/>
   <line x1="938.5" y1="171" x2="942.03553390593" y2="167.46446609407" style="stroke:#0b0;stroke-width:2;"/>
   <line x1="153" y1="371" x2="156.53553390593" y2="374.53553390593" style="stroke:#0b0;stroke-width:2;"/>
   <line x1="153" y1="371" x2="156.53553390593" y2="367.46446609407" style="stroke:#0b0;stroke-width:2;"/>
   <line x1="946" y1="191" x2="936" y2="191" style="stroke:#0bf;stroke-width:1;"/>
   <line x1="736" y1="334" x2="726" y2="334" style="stroke:#0bf;stroke-width:1;"/>
   <line x1="936" y1="191" x2="736" y2="334" style="stroke:#0bf;stroke-width:1;"/>
   <line x1="938.5" y1="191" x2="942.03553390593" y2="194.53553390593" style="stroke:#0bf;stroke-width:2;"/>
   <line x1="938.5" y1="191" x2="942.03553390593" y2="187.46446609407" style="stroke:#0bf;stroke-width:2;"/>
   <line x1="731" y1="334" x2="734.53553390593" y2="337.53553390593" style="stroke:#0bf;stroke-width:2;"/>
   <line x1="731" y1="334" x2="734.53553390593" y2="330.46446609407" style="stroke:#0bf;stroke-width:2;"/>
   <line x1="243" y1="290" x2="233" y2="290" style="stroke:#cb0;stroke-width:1;"/>
   <line x1="158" y1="371" x2="148" y2="371" style="stroke:#cb0;stroke-width:1;"/>
   <line x1="233" y1="290" x2="158" y2="371" style="stroke:#cb0;stroke-width:1;"/>
   <line x1="235.5" y1="290" x2="239.03553390593" y2="293.53553390593" style="stroke:#cb0;stroke-width:2;"/>
   <line x1="235.5" y1="290" x2="239.03553390593" y2="286.46446609407" style="stroke:#cb0;stroke-width:2;"/>
   <line x1="153" y1="371" x2="156.53553390593" y2="374.53553390593" style="stroke:#cb0;stroke-width:2;"/>
   <line x1="153" y1="371" x2="156.53553390593" y2="367.46446609407" style="stroke:#cb0;stroke-width:2;"/>
   <line x1="243" y1="310" x2="233" y2="310" style="stroke:#333;stroke-width:1;"/>
   <line x1="137" y1="48" x2="127" y2="48" style="stroke:#333;stroke-width:1;"/>
   <line x1="233" y1="310" x2="137" y2="48" style="stroke:#333;stroke-width:1;"/>
   <line x1="235.5" y1="310" x2="239.03553390593" y2="313.53553390593" style="stroke:#333;stroke-width:2;"/>
   <line x1="235.5" y1="310" x2="239.03553390593" y2="306.46446609407" style="stroke:#333;stroke-width:2;"/>
   <line x1="132" y1="48" x2="135.53553390593" y2="51.535533905933" style="stroke:#333;stroke-width:2;"/>
   <line x1="132" y1="48" x2="135.53553390593" y2="44.464466094067" style="stroke:#333;stroke-width:2;"/>
   <line x1="310" y1="61" x2="320" y2="61" style="stroke:#0bf;stroke-width:1;"/>
   <line x1="606" y1="54" x2="616" y2="54" style="stroke:#0bf;stroke-width:1;"/>
   <line x1="320" y1="61" x2="606" y2="54" style="stroke:#0bf;stroke-width:1;"/>
   <line x1="317.5" y1="61" x2="313.96446609407" y2="64.535533905933" style="stroke:#0bf;stroke-width:2;"/>
   <line x1="317.5" y1="61" x2="313.96446609407" y2="57.464466094067" style="stroke:#0bf;stroke-width:2;"/>
   <line x1="611" y1="54" x2="607.46446609407" y2="57.535533905933" style="stroke:#0bf;stroke-width:2;"/>
   <line x1="611" y1="54" x2="607.46446609407" y2="50.464466094067" style="stroke:#0bf;stroke-width:2;"/>
   <line x1="238" y1="81" x2="228" y2="81" style="stroke:#cb0;stroke-width:1;"/>
   <line x1="137" y1="48" x2="127" y2="48" style="stroke:#cb0;stroke-width:1;"/>
   <line x1="228" y1="81" x2="137" y2="48" style="stroke:#cb0;stroke-width:1;"/>
   <line x1="230.5" y1="81" x2="234.03553390593" y2="84.535533905933" style="stroke:#cb0;stroke-width:2;"/>
   <line x1="230.5" y1="81" x2="234.03553390593" y2="77.464466094067" style="stroke:#cb0;stroke-width:2;"/>
   <line x1="132" y1="48" x2="135.53553390593" y2="51.535533905933" style="stroke:#cb0;stroke-width:2;"/>
   <line x1="132" y1="48" x2="135.53553390593" y2="44.464466094067" style="stroke:#cb0;stroke-width:2;"/>
   <line x1="237" y1="176" x2="227" y2="176" style="stroke:#c00;stroke-width:1;"/>
   <line x1="137" y1="48" x2="127" y2="48" style="stroke:#c00;stroke-width:1;"/>
   <line x1="227" y1="176" x2="137" y2="48" style="stroke:#c00;stroke-width:1;"/>
   <line x1="229.5" y1="176" x2="233.03553390593" y2="179.53553390593" style="stroke:#c00;stroke-width:2;"/>
   <line x1="229.5" y1="176" x2="233.03553390593" y2="172.46446609407" style="stroke:#c00;stroke-width:2;"/>
   <line x1="132" y1="48" x2="135.53553390593" y2="51.535533905933" style="stroke:#c00;stroke-width:2;"/>
   <line x1="132" y1="48" x2="135.53553390593" y2="44.464466094067" style="stroke:#c00;stroke-width:2;"/>
   <line x1="309" y1="196" x2="319" y2="196" style="stroke:#0bf;stroke-width:1;"/>
   <line x1="632" y1="334" x2="642" y2="334" style="stroke:#0bf;stroke-width:1;"/>
   <line x1="319" y1="196" x2="632" y2="334" style="stroke:#0bf;stroke-width:1;"/>
   <line x1="316.5" y1="196" x2="312.96446609407" y2="199.53553390593" style="stroke:#0bf;stroke-width:2;"/>
   <line x1="316.5" y1="196" x2="312.96446609407" y2="192.46446609407" style="stroke:#0bf;stroke-width:2;"/>
   <line x1="637" y1="334" x2="633.46446609407" y2="337.53553390593" style="stroke:#0bf;stroke-width:2;"/>
   <line x1="637" y1="334" x2="633.46446609407" y2="330.46446609407" style="stroke:#0bf;stroke-width:2;"/>
   <rect width="84" height="20" x="237" y="470" style="fill:#007;stroke:black;"/>
   <text width="84" height="20" x="242" y="484" style="fill:#fff;" font-family="Arial" font-size="16px"> articles</text>
   <rect width="84" height="20" x="237" y="490" style="fill:#aea;stroke:black;"/>
   <text width="84" height="20" x="242" y="504" style="fill:black;" font-family="Arial" font-size="16px">id</text>
   <rect width="84" height="20" x="237" y="510" style="fill:none;stroke:black;"/>
   <text width="84" height="20" x="242" y="524" style="fill:black;" font-family="Arial" font-size="16px">title</text>
   <rect width="84" height="20" x="237" y="530" style="fill:none;stroke:black;"/>
   <text width="84" height="20" x="242" y="544" style="fill:black;" font-family="Arial" font-size="16px">short_desc</text>
   <rect width="84" height="20" x="237" y="550" style="fill:none;stroke:black;"/>
   <text width="84" height="20" x="242" y="564" style="fill:black;" font-family="Arial" font-size="16px">long_desc</text>
   <rect width="84" height="20" x="237" y="570" style="fill:none;stroke:black;"/>
   <text width="84" height="20" x="242" y="584" style="fill:black;" font-family="Arial" font-size="16px">thumbnail</text>
   <rect width="84" height="20" x="237" y="590" style="fill:none;stroke:black;"/>
   <text width="84" height="20" x="242" y="604" style="fill:black;" font-family="Arial" font-size="16px">picture</text>
   <rect width="84" height="20" x="237" y="610" style="fill:none;stroke:black;"/>
   <text width="84" height="20" x="242" y="624" style="fill:black;" font-family="Arial" font-size="16px">add_date</text>
   <rect width="84" height="20" x="237" y="630" style="fill:none;stroke:black;"/>
   <text width="84" height="20" x="242" y="644" style="fill:black;" font-family="Arial" font-size="16px">id_user</text>
   <rect width="123" height="20" x="451" y="502" style="fill:#007;stroke:black;"/>
   <text width="123" height="20" x="456" y="516" style="fill:#fff;" font-family="Arial" font-size="16px"> article_comment</text>
   <rect width="123" height="20" x="451" y="522" style="fill:none;stroke:black;"/>
   <text width="123" height="20" x="456" y="536" style="fill:black;" font-family="Arial" font-size="16px">id_user</text>
   <rect width="123" height="20" x="451" y="542" style="fill:none;stroke:black;"/>
   <text width="123" height="20" x="456" y="556" style="fill:black;" font-family="Arial" font-size="16px">id_article</text>
   <rect width="123" height="20" x="451" y="562" style="fill:none;stroke:black;"/>
   <text width="123" height="20" x="456" y="576" style="fill:black;" font-family="Arial" font-size="16px">description</text>
   <rect width="123" height="20" x="451" y="582" style="fill:none;stroke:black;"/>
   <text width="123" height="20" x="456" y="596" style="fill:black;" font-family="Arial" font-size="16px">add_date</text>
   <rect width="84" height="20" x="245" y="365" style="fill:#007;stroke:black;"/>
   <text width="84" height="20" x="250" y="379" style="fill:#fff;" font-family="Arial" font-size="16px"> article_diet</text>
   <rect width="84" height="20" x="245" y="385" style="fill:none;stroke:black;"/>
   <text width="84" height="20" x="250" y="399" style="fill:black;" font-family="Arial" font-size="16px">id_article</text>
   <rect width="84" height="20" x="245" y="405" style="fill:none;stroke:black;"/>
   <text width="84" height="20" x="250" y="419" style="fill:black;" font-family="Arial" font-size="16px">id_diet</text>
   <rect width="84" height="20" x="642" y="304" style="fill:#007;stroke:black;"/>
   <text width="84" height="20" x="647" y="318" style="fill:#fff;" font-family="Arial" font-size="16px"> diets</text>
   <rect width="84" height="20" x="642" y="324" style="fill:#aea;stroke:black;"/>
   <text width="84" height="20" x="647" y="338" style="fill:black;" font-family="Arial" font-size="16px">id</text>
   <rect width="84" height="20" x="642" y="344" style="fill:none;stroke:black;"/>
   <text width="84" height="20" x="647" y="358" style="fill:black;" font-family="Arial" font-size="16px">name</text>
   <rect width="84" height="20" x="642" y="364" style="fill:none;stroke:black;"/>
   <text width="84" height="20" x="647" y="378" style="fill:black;" font-family="Arial" font-size="16px">short_desc</text>
   <rect width="84" height="20" x="642" y="384" style="fill:none;stroke:black;"/>
   <text width="84" height="20" x="647" y="398" style="fill:black;" font-family="Arial" font-size="16px">long_desc</text>
   <rect width="84" height="20" x="642" y="404" style="fill:none;stroke:black;"/>
   <text width="84" height="20" x="647" y="418" style="fill:black;" font-family="Arial" font-size="16px">picture</text>
   <rect width="84" height="20" x="642" y="424" style="fill:none;stroke:black;"/>
   <text width="84" height="20" x="647" y="438" style="fill:black;" font-family="Arial" font-size="16px">thumbnail</text>
   <rect width="106" height="20" x="42" y="341" style="fill:#007;stroke:black;"/>
   <text width="106" height="20" x="47" y="355" style="fill:#fff;" font-family="Arial" font-size="16px"> events</text>
   <rect width="106" height="20" x="42" y="361" style="fill:#aea;stroke:black;"/>
   <text width="106" height="20" x="47" y="375" style="fill:black;" font-family="Arial" font-size="16px">id</text>
   <rect width="106" height="20" x="42" y="381" style="fill:none;stroke:black;"/>
   <text width="106" height="20" x="47" y="395" style="fill:black;" font-family="Arial" font-size="16px">title</text>
   <rect width="106" height="20" x="42" y="401" style="fill:none;stroke:black;"/>
   <text width="106" height="20" x="47" y="415" style="fill:black;" font-family="Arial" font-size="16px">short_desc</text>
   <rect width="106" height="20" x="42" y="421" style="fill:none;stroke:black;"/>
   <text width="106" height="20" x="47" y="435" style="fill:black;" font-family="Arial" font-size="16px">long_desc</text>
   <rect width="106" height="20" x="42" y="441" style="fill:none;stroke:black;"/>
   <text width="106" height="20" x="47" y="455" style="fill:black;" font-family="Arial" font-size="16px">picture</text>
   <rect width="106" height="20" x="42" y="461" style="fill:none;stroke:black;"/>
   <text width="106" height="20" x="47" y="475" style="fill:black;" font-family="Arial" font-size="16px">thumbnail</text>
   <rect width="106" height="20" x="42" y="481" style="fill:none;stroke:black;"/>
   <text width="106" height="20" x="47" y="495" style="fill:black;" font-family="Arial" font-size="16px">id_user</text>
   <rect width="106" height="20" x="42" y="501" style="fill:none;stroke:black;"/>
   <text width="106" height="20" x="47" y="515" style="fill:black;" font-family="Arial" font-size="16px">add_date</text>
   <rect width="106" height="20" x="42" y="521" style="fill:none;stroke:black;"/>
   <text width="106" height="20" x="47" y="535" style="fill:black;" font-family="Arial" font-size="16px">event_date</text>
   <rect width="106" height="20" x="42" y="541" style="fill:none;stroke:black;"/>
   <text width="106" height="20" x="47" y="555" style="fill:black;" font-family="Arial" font-size="16px">telepresential</text>
   <rect width="106" height="20" x="42" y="561" style="fill:none;stroke:black;"/>
   <text width="106" height="20" x="47" y="575" style="fill:black;" font-family="Arial" font-size="16px">address</text>
   <rect width="106" height="20" x="42" y="581" style="fill:none;stroke:black;"/>
   <text width="106" height="20" x="47" y="595" style="fill:black;" font-family="Arial" font-size="16px">zipcode</text>
   <rect width="106" height="20" x="42" y="601" style="fill:none;stroke:black;"/>
   <text width="106" height="20" x="47" y="615" style="fill:black;" font-family="Arial" font-size="16px">city</text>
   <rect width="106" height="20" x="42" y="621" style="fill:none;stroke:black;"/>
   <text width="106" height="20" x="47" y="635" style="fill:black;" font-family="Arial" font-size="16px">places_nb</text>
   <rect width="95" height="20" x="464" y="638" style="fill:#007;stroke:black;"/>
   <text width="95" height="20" x="469" y="652" style="fill:#fff;" font-family="Arial" font-size="16px"> event_article</text>
   <rect width="95" height="20" x="464" y="658" style="fill:none;stroke:black;"/>
   <text width="95" height="20" x="469" y="672" style="fill:black;" font-family="Arial" font-size="16px">id_user</text>
   <rect width="95" height="20" x="464" y="678" style="fill:none;stroke:black;"/>
   <text width="95" height="20" x="469" y="692" style="fill:black;" font-family="Arial" font-size="16px">id_article</text>
   <rect width="95" height="20" x="464" y="698" style="fill:none;stroke:black;"/>
   <text width="95" height="20" x="469" y="712" style="fill:black;" font-family="Arial" font-size="16px">description</text>
   <rect width="95" height="20" x="464" y="718" style="fill:none;stroke:black;"/>
   <text width="95" height="20" x="469" y="732" style="fill:black;" font-family="Arial" font-size="16px">add_date</text>
   <rect width="116" height="20" x="577" y="115" style="fill:#007;stroke:black;"/>
   <text width="116" height="20" x="582" y="129" style="fill:#fff;" font-family="Arial" font-size="16px"> event_comment</text>
   <rect width="116" height="20" x="577" y="135" style="fill:none;stroke:black;"/>
   <text width="116" height="20" x="582" y="149" style="fill:black;" font-family="Arial" font-size="16px">id_user</text>
   <rect width="116" height="20" x="577" y="155" style="fill:none;stroke:black;"/>
   <text width="116" height="20" x="582" y="169" style="fill:black;" font-family="Arial" font-size="16px">id_event</text>
   <rect width="116" height="20" x="577" y="175" style="fill:none;stroke:black;"/>
   <text width="116" height="20" x="582" y="189" style="fill:black;" font-family="Arial" font-size="16px">description</text>
   <rect width="116" height="20" x="577" y="195" style="fill:none;stroke:black;"/>
   <text width="116" height="20" x="582" y="209" style="fill:black;" font-family="Arial" font-size="16px">add_date</text>
   <rect width="80" height="20" x="946" y="141" style="fill:#007;stroke:black;"/>
   <text width="80" height="20" x="951" y="155" style="fill:#fff;" font-family="Arial" font-size="16px"> event_diet</text>
   <rect width="80" height="20" x="946" y="161" style="fill:none;stroke:black;"/>
   <text width="80" height="20" x="951" y="175" style="fill:black;" font-family="Arial" font-size="16px">id_event</text>
   <rect width="80" height="20" x="946" y="181" style="fill:none;stroke:black;"/>
   <text width="80" height="20" x="951" y="195" style="fill:black;" font-family="Arial" font-size="16px">id_diet</text>
   <rect width="80" height="20" x="243" y="260" style="fill:#007;stroke:black;"/>
   <text width="80" height="20" x="248" y="274" style="fill:#fff;" font-family="Arial" font-size="16px"> event_user</text>
   <rect width="80" height="20" x="243" y="280" style="fill:#aea;stroke:black;"/>
   <text width="80" height="20" x="248" y="294" style="fill:black;" font-family="Arial" font-size="16px">id_event</text>
   <rect width="80" height="20" x="243" y="300" style="fill:#aea;stroke:black;"/>
   <text width="80" height="20" x="248" y="314" style="fill:black;" font-family="Arial" font-size="16px">id_user</text>
   <rect width="50" height="20" x="616" y="24" style="fill:#007;stroke:black;"/>
   <text width="50" height="20" x="621" y="38" style="fill:#fff;" font-family="Arial" font-size="16px"> roles</text>
   <rect width="50" height="20" x="616" y="44" style="fill:#aea;stroke:black;"/>
   <text width="50" height="20" x="621" y="58" style="fill:black;" font-family="Arial" font-size="16px">id</text>
   <rect width="50" height="20" x="616" y="64" style="fill:none;stroke:black;"/>
   <text width="50" height="20" x="621" y="78" style="fill:black;" font-family="Arial" font-size="16px">name</text>
   <rect width="72" height="20" x="238" y="31" style="fill:#007;stroke:black;"/>
   <text width="72" height="20" x="243" y="45" style="fill:#fff;" font-family="Arial" font-size="16px"> role_user</text>
   <rect width="72" height="20" x="238" y="51" style="fill:none;stroke:black;"/>
   <text width="72" height="20" x="243" y="65" style="fill:black;" font-family="Arial" font-size="16px">id_role</text>
   <rect width="72" height="20" x="238" y="71" style="fill:none;stroke:black;"/>
   <text width="72" height="20" x="243" y="85" style="fill:black;" font-family="Arial" font-size="16px">id_user</text>
   <rect width="81" height="20" x="46" y="18" style="fill:#007;stroke:black;"/>
   <text width="81" height="20" x="51" y="32" style="fill:#fff;" font-family="Arial" font-size="16px"> users</text>
   <rect width="81" height="20" x="46" y="38" style="fill:#aea;stroke:black;"/>
   <text width="81" height="20" x="51" y="52" style="fill:black;" font-family="Arial" font-size="16px">id</text>
   <rect width="81" height="20" x="46" y="58" style="fill:none;stroke:black;"/>
   <text width="81" height="20" x="51" y="72" style="fill:black;" font-family="Arial" font-size="16px">first_name</text>
   <rect width="81" height="20" x="46" y="78" style="fill:none;stroke:black;"/>
   <text width="81" height="20" x="51" y="92" style="fill:black;" font-family="Arial" font-size="16px">last_name</text>
   <rect width="81" height="20" x="46" y="98" style="fill:none;stroke:black;"/>
   <text width="81" height="20" x="51" y="112" style="fill:black;" font-family="Arial" font-size="16px">birth_date</text>
   <rect width="81" height="20" x="46" y="118" style="fill:none;stroke:black;"/>
   <text width="81" height="20" x="51" y="132" style="fill:black;" font-family="Arial" font-size="16px">address</text>
   <rect width="81" height="20" x="46" y="138" style="fill:none;stroke:black;"/>
   <text width="81" height="20" x="51" y="152" style="fill:black;" font-family="Arial" font-size="16px">city</text>
   <rect width="81" height="20" x="46" y="158" style="fill:none;stroke:black;"/>
   <text width="81" height="20" x="51" y="172" style="fill:black;" font-family="Arial" font-size="16px">zipcode</text>
   <rect width="81" height="20" x="46" y="178" style="fill:none;stroke:black;"/>
   <text width="81" height="20" x="51" y="192" style="fill:black;" font-family="Arial" font-size="16px">phone</text>
   <rect width="81" height="20" x="46" y="198" style="fill:none;stroke:black;"/>
   <text width="81" height="20" x="51" y="212" style="fill:black;" font-family="Arial" font-size="16px">email</text>
   <rect width="81" height="20" x="46" y="218" style="fill:none;stroke:black;"/>
   <text width="81" height="20" x="51" y="232" style="fill:black;" font-family="Arial" font-size="16px">password</text>
   <rect width="72" height="20" x="237" y="146" style="fill:#007;stroke:black;"/>
   <text width="72" height="20" x="242" y="160" style="fill:#fff;" font-family="Arial" font-size="16px"> user_diet</text>
   <rect width="72" height="20" x="237" y="166" style="fill:none;stroke:black;"/>
   <text width="72" height="20" x="242" y="180" style="fill:black;" font-family="Arial" font-size="16px">id_user</text>
   <rect width="72" height="20" x="237" y="186" style="fill:none;stroke:black;"/>
   <text width="72" height="20" x="242" y="200" style="fill:black;" font-family="Arial" font-size="16px">id_diet</text>
</svg>
